<svg width="640" height="259" viewBox="0 0 640 259" fill="none" xmlns="http://www.w3.org/2000/svg">
<g filter="url(#filter0_d_145_1368)">
<path d="M0 19.9344C0 19.9344 138.762 64.7867 281.262 19.9344C423.762 -24.918 627 19.9344 627 19.9344V225.508C627 225.508 454.598 180.189 313.5 225.508C172.402 270.828 0 225.508 0 225.508V19.9344Z" fill="white"/>
</g>
<path d="M577.132 157.432C579.94 160.414 581.447 163.758 581.447 169.179C581.447 178.718 574.75 187.268 565.012 191.495L562.579 187.739C571.668 182.822 573.445 176.442 574.154 172.42C572.69 173.177 570.774 173.442 568.896 173.267C563.98 172.812 560.104 168.776 560.104 163.758C560.104 161.228 561.109 158.802 562.898 157.013C564.687 155.224 567.113 154.219 569.643 154.219C572.567 154.219 575.364 155.555 577.132 157.432ZM549.878 157.432C552.685 160.414 554.193 163.758 554.193 169.179C554.193 178.718 547.496 187.268 537.758 191.495L535.325 187.739C544.414 182.822 546.191 176.442 546.899 172.42C545.436 173.177 543.52 173.442 541.642 173.267C536.725 172.812 532.853 168.776 532.853 163.758C532.853 161.228 533.858 158.802 535.647 157.013C537.435 155.224 539.862 154.219 542.392 154.219C545.316 154.219 548.112 155.555 549.881 157.432H549.878Z" fill="#ADADAD"/>
<defs>
<filter id="filter0_d_145_1368" x="0" y="0" width="640" height="258.65" filterUnits="userSpaceOnUse" color-interpolation-filters="sRGB">
<feFlood flood-opacity="0" result="BackgroundImageFix"/>
<feColorMatrix in="SourceAlpha" type="matrix" values="0 0 0 0 0 0 0 0 0 0 0 0 0 0 0 0 0 0 127 0" result="hardAlpha"/>
<feOffset dx="12" dy="12"/>
<feGaussianBlur stdDeviation="0.5"/>
<feComposite in2="hardAlpha" operator="out"/>
<feColorMatrix type="matrix" values="0 0 0 0 0 0 0 0 0 0 0 0 0 0 0 0 0 0 0.13 0"/>
<feBlend mode="normal" in2="BackgroundImageFix" result="effect1_dropShadow_145_1368"/>
<feBlend mode="normal" in="SourceGraphic" in2="effect1_dropShadow_145_1368" result="shape"/>
</filter>
</defs>
</svg>
